<svg width="13" height="13" viewBox="0 0 13 13" fill="none" xmlns="http://www.w3.org/2000/svg">
<path d="M3.375 4.625C3.7894 4.625 4.18683 4.46038 4.47985 4.16735C4.77288 3.87433 4.9375 3.4769 4.9375 3.0625C4.9375 2.6481 4.77288 2.25067 4.47985 1.95765C4.18683 1.66462 3.7894 1.5 3.375 1.5C2.9606 1.5 2.56317 1.66462 2.27015 1.95765C1.97712 2.25067 1.8125 2.6481 1.8125 3.0625C1.8125 3.4769 1.97712 3.87433 2.27015 4.16735C2.56317 4.46038 2.9606 4.625 3.375 4.625ZM3.375 5.875C3.00566 5.875 2.63993 5.80225 2.2987 5.66091C1.95747 5.51957 1.64743 5.3124 1.38626 5.05124C1.1251 4.79007 0.91793 4.48003 0.776589 4.1388C0.635247 3.79757 0.5625 3.43184 0.5625 3.0625C0.5625 2.69316 0.635247 2.32743 0.776589 1.9862C0.91793 1.64497 1.1251 1.33493 1.38626 1.07376C1.64743 0.812597 1.95747 0.60543 2.2987 0.464089C2.63993 0.322748 3.00566 0.25 3.375 0.25C4.12092 0.25 4.83629 0.546316 5.36374 1.07376C5.89118 1.60121 6.1875 2.31658 6.1875 3.0625C6.1875 3.80842 5.89118 4.52379 5.36374 5.05124C4.83629 5.57868 4.12092 5.875 3.375 5.875ZM9.9375 7.125C10.269 7.125 10.587 6.9933 10.8214 6.75888C11.0558 6.52446 11.1875 6.20652 11.1875 5.875C11.1875 5.54348 11.0558 5.22554 10.8214 4.99112C10.587 4.7567 10.269 4.625 9.9375 4.625C9.60598 4.625 9.28804 4.7567 9.05362 4.99112C8.8192 5.22554 8.6875 5.54348 8.6875 5.875C8.6875 6.20652 8.8192 6.52446 9.05362 6.75888C9.28804 6.9933 9.60598 7.125 9.9375 7.125ZM9.9375 8.375C9.27446 8.375 8.63857 8.11161 8.16973 7.64277C7.70089 7.17393 7.4375 6.53804 7.4375 5.875C7.4375 5.21196 7.70089 4.57607 8.16973 4.10723C8.63857 3.63839 9.27446 3.375 9.9375 3.375C10.6005 3.375 11.2364 3.63839 11.7053 4.10723C12.1741 4.57607 12.4375 5.21196 12.4375 5.875C12.4375 6.53804 12.1741 7.17393 11.7053 7.64277C11.2364 8.11161 10.6005 8.375 9.9375 8.375ZM11.5 12.125V11.8125C11.5 11.3981 11.3354 11.0007 11.0424 10.7076C10.7493 10.4146 10.3519 10.25 9.9375 10.25C9.5231 10.25 9.12567 10.4146 8.83265 10.7076C8.53962 11.0007 8.375 11.3981 8.375 11.8125V12.125H7.125V11.8125C7.125 11.4432 7.19775 11.0774 7.33909 10.7362C7.48043 10.395 7.6876 10.0849 7.94876 9.82376C8.20993 9.5626 8.51997 9.35543 8.8612 9.21409C9.20243 9.07275 9.56816 9 9.9375 9C10.3068 9 10.6726 9.07275 11.0138 9.21409C11.355 9.35543 11.6651 9.5626 11.9262 9.82376C12.1874 10.0849 12.3946 10.395 12.5359 10.7362C12.6773 11.0774 12.75 11.4432 12.75 11.8125V12.125H11.5ZM5.25 12.125V9.625C5.25 9.12772 5.05246 8.65081 4.70083 8.29917C4.34919 7.94754 3.87228 7.75 3.375 7.75C2.87772 7.75 2.40081 7.94754 2.04917 8.29917C1.69754 8.65081 1.5 9.12772 1.5 9.625V12.125H0.25V9.625C0.25 8.7962 0.57924 8.00134 1.16529 7.41529C1.75134 6.82924 2.5462 6.5 3.375 6.5C4.2038 6.5 4.99866 6.82924 5.58471 7.41529C6.17076 8.00134 6.5 8.7962 6.5 9.625V12.125H5.25Z" fill="#666666"/>
</svg>
